/* XPM */
static char *cdcat[] = {
/* columns rows colors chars-per-pixel */
"16 15 175 2",
"   c #75302F",
".  c #8F3A3B",
"X  c #9A3837",
"o  c #A43D3D",
"O  c #F32D2F",
"+  c #E03E3E",
"@  c #FA3535",
"#  c #F83738",
"$  c #FC3738",
"%  c #F13A3A",
"&  c #FE3D3E",
"*  c #B24949",
"=  c #BF4948",
"-  c #B56767",
";  c #CC4040",
":  c #D44F4F",
">  c #FE4545",
",  c #FD4647",
"<  c #FE4747",
"1  c #FD4748",
"2  c #F74A4A",
"3  c #F84848",
"4  c #FC4949",
"5  c #FD4A4B",
"6  c #FE4A4A",
"7  c #FE4A4B",
"8  c #FE4B4B",
"9  c #FE4D4C",
"0  c #FE5352",
"q  c #FE5353",
"w  c #FB5756",
"e  c #FE5757",
"r  c #FE5857",
"t  c #FE5959",
"y  c #FE5A59",
"u  c #FE5C5C",
"i  c #FE5C5D",
"p  c #DA5463",
"a  c #DB5F62",
"s  c #DE6062",
"d  c #FE6161",
"f  c #FE6363",
"g  c #FE6565",
"h  c #FE6665",
"j  c #FE6969",
"k  c #FE6A6A",
"l  c #FA6C6B",
"z  c #FE6D6D",
"x  c #FE7171",
"c  c #FE7373",
"v  c #FE7374",
"b  c #FE7475",
"n  c #FE7777",
"m  c #FE7979",
"M  c #FE7B7C",
"N  c #FE7E7E",
"B  c #E67886",
"V  c #E47C8D",
"C  c #C28B9F",
"Z  c #F78282",
"A  c #FE8181",
"S  c #FE8383",
"D  c #FE8484",
"F  c #FE8586",
"G  c #FE8988",
"H  c #FE8A89",
"J  c #FE8F8F",
"K  c #FE9292",
"L  c #FE9393",
"P  c #FD9595",
"I  c #FE9A9A",
"U  c #FE9B9B",
"Y  c #FE9C9C",
"T  c #DD90A4",
"R  c #DBA2A7",
"E  c #FEA1A1",
"W  c #FEA2A3",
"Q  c #FEA3A4",
"!  c #FEA4A5",
"~  c #FEA7A7",
"^  c #FEA8A9",
"/  c #FEABAB",
"(  c #FEACAB",
")  c #FEADAE",
"_  c #FEAFAE",
"`  c #EAAAB5",
"'  c #EDB0B2",
"]  c #FBB0B1",
"[  c #FEB3B3",
"{  c #FEB4B4",
"}  c #FEB7B7",
"|  c #FEB7B8",
" . c #FEB9B9",
".. c #FEBABA",
"X. c #FEBDBF",
"o. c #B2AACB",
"O. c #ABB7D9",
"+. c #B6BEE1",
"@. c #A6B9F3",
"#. c #A8BCF4",
"$. c #CFB8D6",
"%. c #BCC2DB",
"&. c #ADC1F7",
"*. c #B4C3F3",
"=. c #B2C3F5",
"-. c #B5C6F5",
";. c #B5C6F6",
":. c #BECDF7",
">. c #B7CBFB",
",. c #BACAFA",
"<. c #DACBDE",
"1. c #ECCACA",
"2. c #F0C0C2",
"3. c #FEC4C4",
"4. c #FEC6C6",
"5. c #FEC7C7",
"6. c #F1CDCD",
"7. c #F3CECE",
"8. c #FEC8C9",
"9. c #FEC9CA",
"0. c #FECFCF",
"q. c #EDCFD2",
"w. c #F6D2D2",
"e. c #FED2D0",
"r. c #FED2D2",
"t. c #FED3D3",
"y. c #FEDBDB",
"u. c #FEDDDE",
"i. c #C1CBEA",
"p. c #C7D1EE",
"a. c #CBD3EC",
"s. c #D0D6EE",
"d. c #D6D6EC",
"f. c #DCDEEE",
"g. c #CCD6F5",
"h. c #C3D2F8",
"j. c #CAD6F8",
"k. c #CED9F9",
"l. c #CCD8FD",
"z. c #D2DDF9",
"x. c #D8E0F7",
"c. c #DCE1F4",
"v. c #D1E4FF",
"b. c #D2E6FF",
"n. c #D9E2F9",
"m. c #DAE5FB",
"M. c #DEE6FD",
"N. c #FEE0E0",
"B. c #FEE2E2",
"V. c #F3E6E9",
"C. c #FEEDED",
"Z. c #E2E9FB",
"A. c #E3EAFC",
"S. c #E9EEFF",
"D. c #EEF2FD",
"F. c #EFF2FD",
"G. c #EFF3FD",
"H. c #ECF4FF",
"J. c #F1F4FC",
"K. c #F3F5FC",
"L. c #F3F5FD",
"P. c #F3F5FE",
"I. c #F4F7FD",
"U. c #F8F8FB",
"Y. c #FBFBFD",
"T. c #F8F9FE",
"R. c #FBFBFE",
"E. c #FBFDFF",
"W. c #FCFCFF",
"Q. c #FDFDFF",
"!. c #FDFEFF",
"~. c #FEFEFF",
"^. c #FFFEFF",
"/. c #FFFFFF",
"(. c None",
/* pixels */
"(.(.(.(.(.(.(.(.q.V.N.e.' s (.(.",
"(.(.7.7.w.1.R 2.C.B.0.X.[ P a (.",
"(.] ~ / ..5.t.u.y.t.4.} / Y l (.",
"Z N G Y ) ..4.8.4.4...) I x 8 > ",
"w b F L E ( [ } } } Q H j 8 @ > ",
"1 k b F K Y E ~ I J m f e 8 @ > ",
"O u g x M A F S ` *.p.a.T > > = ",
"+ 8 u g z x n r H.F.j.W.Y.<.p (.",
"- % 0 t f g r d.!.!.A.Y.E.,.o.(.",
"(.; > 9 0 r t v.n.I.F.c.z.#.@.(.",
"(.(.= 2 > 1 8 v.-.k.l.V +.h.&.(.",
"(.(.(.* 3 & # $.=.-.M.i.f.A.h.O.",
"(.(.(.(.o : # 8 ,.m.!.P.F.!.I.%.",
"(.(.(.(.(.(.X # B K.!.Y.z.W.U.(.",
"(.(.(.(.(.(.(.  . C S.P.g.s.(.(."
};
